<svg width="24" height="24" viewBox="0 0 24 24" fill="none" xmlns="http://www.w3.org/2000/svg">
<path fill-rule="evenodd" clip-rule="evenodd" d="M14.7242 6.99414C14.6772 6.99941 14.6171 6.99995 14.5108 7H14.449L14.4712 7L14.5108 7H17.8002C18.9203 7 19.4796 7 19.9074 7.21799C20.2837 7.40973 20.5905 7.71547 20.7822 8.0918C21 8.5192 21 9.07899 21 10.1969V15.8031C21 16.921 21 17.48 20.7822 17.9074C20.5905 18.2837 20.2837 18.5905 19.9074 18.7822C19.48 19 18.921 19 17.8031 19H6.19691C5.07899 19 4.5192 19 4.0918 18.7822C3.71547 18.5905 3.40973 18.2837 3.21799 17.9074C3 17.4796 3 16.9203 3 15.8002V10.2002C3 9.08009 3 8.51962 3.21799 8.0918C3.40973 7.71547 3.71547 7.40973 4.0918 7.21799C4.51962 7 5.08009 7 6.2002 7H9.48898L9.52857 7L9.55078 7H9.48898C9.38286 6.99995 9.32339 6.99941 9.27637 6.99414C8.68878 6.92835 8.28578 6.36908 8.40918 5.79084C8.42066 5.73704 8.44335 5.66898 8.48827 5.53422L8.4883 5.53412L8.49023 5.52841C8.54156 5.37443 8.56723 5.29743 8.59558 5.22949C8.88586 4.53389 9.54322 4.06083 10.2949 4.00541C10.3683 4 10.449 4 10.6113 4H13.3886C13.5509 4 13.6322 4 13.7057 4.00541C14.4574 4.06083 15.114 4.53389 15.4043 5.22949C15.4326 5.29743 15.4584 5.37434 15.5098 5.52832C15.556 5.66699 15.5791 5.73636 15.5908 5.79093C15.7142 6.36917 15.3118 6.92835 14.7242 6.99414ZM12 17C9.79086 17 8 15.2091 8 13C8 10.7909 9.79086 9 12 9C14.2091 9 16 10.7909 16 13C16 15.2091 14.2091 17 12 17Z" fill="var(--color-theme-main)"/>
<path d="M14.7242 6.99414L14.8355 7.98793L14.7242 6.99414ZM14.449 7V6C13.8967 6 13.449 6.44769 13.449 6.99996C13.4489 7.55223 13.8966 7.99995 14.4489 8L14.449 7ZM14.4712 7L14.4711 8H14.4712L14.4712 7ZM19.9074 7.21799L20.3614 6.32698V6.32698L19.9074 7.21799ZM20.7822 8.0918L19.8912 8.54579L19.8912 8.54579L20.7822 8.0918ZM20.7822 17.9074L19.8912 17.4534V17.4534L20.7822 17.9074ZM19.9074 18.7822L20.3614 19.6732L19.9074 18.7822ZM4.0918 18.7822L3.63781 19.6732H3.63781L4.0918 18.7822ZM3.21799 17.9074L2.32698 18.3614L2.32698 18.3614L3.21799 17.9074ZM3.21799 8.0918L2.32698 7.63781L3.21799 8.0918ZM4.0918 7.21799L4.54579 8.10899H4.54579L4.0918 7.21799ZM9.52857 7L9.52852 8H9.52865L9.52857 7ZM9.55078 7L9.55087 8C10.1031 7.99995 10.5508 7.55223 10.5508 6.99996C10.5508 6.44769 10.103 6 9.55078 6V7ZM9.27637 6.99414L9.38764 6.00035H9.38763L9.27637 6.99414ZM8.40918 5.79084L9.38716 5.99955L9.38716 5.99954L8.40918 5.79084ZM8.48827 5.53422L9.43696 5.85046L9.43863 5.84537L8.48827 5.53422ZM8.4883 5.53412L7.54112 5.21326L7.53794 5.22297L8.4883 5.53412ZM8.49023 5.52841L9.43738 5.84926L9.43892 5.84464L8.49023 5.52841ZM8.59558 5.22949L7.67271 4.84437V4.84437L8.59558 5.22949ZM10.2949 4.00541L10.3684 5.00271H10.3684L10.2949 4.00541ZM13.7057 4.00541L13.7792 3.00812V3.00812L13.7057 4.00541ZM15.4043 5.22949L16.3272 4.84438L16.3272 4.84437L15.4043 5.22949ZM15.5098 5.52832L14.5611 5.84455L14.5611 5.84456L15.5098 5.52832ZM15.5908 5.79093L14.6128 5.99963L14.6128 5.99964L15.5908 5.79093ZM14.5112 8C14.5984 7.99996 14.7211 8.00074 14.8355 7.98793L14.6129 6.00035C14.6309 5.99834 14.6369 5.99882 14.6163 5.9993C14.5953 5.9998 14.5647 5.99998 14.5104 6L14.5112 8ZM14.449 8H14.5108V6H14.449V8ZM14.4713 6L14.4491 6L14.4489 8L14.4711 8L14.4713 6ZM14.5108 6L14.4711 6L14.4712 8L14.5109 8L14.5108 6ZM17.8002 6H14.5108V8H17.8002V6ZM20.3614 6.32698C19.9831 6.13424 19.5902 6.06289 19.1949 6.03057C18.8114 5.99922 18.3437 6 17.8002 6V8C18.3768 8 18.7488 8.00078 19.0319 8.02392C19.3032 8.0461 19.4039 8.08374 19.4534 8.10899L20.3614 6.32698ZM21.6732 7.63781C21.3851 7.07224 20.9248 6.61405 20.3614 6.32698L19.4534 8.10899C19.6427 8.20542 19.7959 8.3587 19.8912 8.54579L21.6732 7.63781ZM22 10.1969C22 9.65444 22.0008 9.18725 21.9695 8.80396C21.9372 8.40906 21.8659 8.016 21.6732 7.63781L19.8912 8.54579C19.9163 8.595 19.9539 8.69554 19.9761 8.96686C19.9992 9.2498 20 9.62146 20 10.1969H22ZM22 15.8031V10.1969H20V15.8031H22ZM21.6732 18.3614C21.8659 17.9833 21.9372 17.5905 21.9695 17.1957C22.0008 16.8126 22 16.3455 22 15.8031H20C20 16.3786 19.9992 16.75 19.9761 17.0327C19.9539 17.3036 19.9164 17.4041 19.8912 17.4534L21.6732 18.3614ZM20.3614 19.6732C20.9259 19.3856 21.3856 18.9259 21.6732 18.3614L19.8912 17.4534C19.7953 17.6416 19.6416 17.7953 19.4534 17.8912L20.3614 19.6732ZM17.8031 20C18.3455 20 18.8126 20.0008 19.1957 19.9695C19.5905 19.9372 19.9833 19.8659 20.3614 19.6732L19.4534 17.8912C19.4041 17.9164 19.3036 17.9539 19.0327 17.9761C18.75 17.9992 18.3786 18 17.8031 18V20ZM6.19691 20H17.8031V18H6.19691V20ZM3.63781 19.6732C4.016 19.8659 4.40906 19.9372 4.80396 19.9695C5.18725 20.0008 5.65444 20 6.19691 20V18C5.62146 18 5.2498 17.9992 4.96686 17.9761C4.69554 17.9539 4.595 17.9163 4.54579 17.8912L3.63781 19.6732ZM2.32698 18.3614C2.61405 18.9248 3.07224 19.3851 3.63781 19.6732L4.54579 17.8912C4.35871 17.7959 4.20542 17.6426 4.10899 17.4534L2.32698 18.3614ZM2 15.8002C2 16.3437 1.99922 16.8114 2.03057 17.1949C2.06289 17.5902 2.13424 17.9831 2.32698 18.3614L4.10899 17.4534C4.08374 17.4038 4.0461 17.3032 4.02392 17.0319C4.00078 16.7488 4 16.3768 4 15.8002H2ZM2 10.2002V15.8002H4V10.2002H2ZM2.32698 7.63781C2.13416 8.01624 2.06286 8.40962 2.03057 8.80498C1.99922 9.18874 2 9.65663 2 10.2002H4C4 9.62365 4.00078 9.25126 4.02393 8.9678C4.04613 8.69595 4.08383 8.59517 4.10899 8.54579L2.32698 7.63781ZM3.63781 6.32698C3.07332 6.6146 2.6146 7.07332 2.32698 7.63781L4.10899 8.54579C4.20487 8.35763 4.35763 8.20487 4.54579 8.10899L3.63781 6.32698ZM6.2002 6C5.65663 6 5.18874 5.99922 4.80498 6.03057C4.40962 6.06286 4.01624 6.13416 3.63781 6.32698L4.54579 8.10899C4.59517 8.08383 4.69595 8.04613 4.9678 8.02393C5.25126 8.00078 5.62365 8 6.2002 8V6ZM9.48898 6H6.2002V8H9.48898V6ZM9.52862 6L9.48903 6L9.48893 8L9.52852 8L9.52862 6ZM9.5507 6L9.52848 6L9.52865 8L9.55087 8L9.5507 6ZM9.48898 8H9.55078V6H9.48898V8ZM9.1651 7.98793C9.2794 8.00073 9.40129 7.99996 9.48855 8L9.4894 6C9.43519 5.99998 9.40485 5.99979 9.38406 5.99931C9.36394 5.99883 9.3699 5.99836 9.38764 6.00035L9.1651 7.98793ZM7.4312 5.58213C7.18444 6.73846 7.98978 7.85634 9.1651 7.98793L9.38763 6.00035L9.38716 5.99955L7.4312 5.58213ZM7.53959 5.21798C7.50425 5.324 7.4574 5.45936 7.4312 5.58214L9.38716 5.99954C9.38327 6.01779 9.38107 6.02177 9.3904 5.992C9.3998 5.96201 9.41334 5.92128 9.43695 5.85045L7.53959 5.21798ZM7.53794 5.22297L7.53791 5.22307L9.43863 5.84537L9.43866 5.84527L7.53794 5.22297ZM7.5431 5.20757L7.54117 5.21327L9.43543 5.85496L9.43737 5.84926L7.5431 5.20757ZM7.67271 4.84437C7.62675 4.95451 7.58777 5.07353 7.54155 5.21219L9.43892 5.84464C9.49536 5.67532 9.5077 5.64035 9.51845 5.61461L7.67271 4.84437ZM10.2214 3.00812C9.09449 3.0912 8.10838 3.80037 7.67271 4.84437L9.51845 5.61461C9.66334 5.2674 9.99195 5.03046 10.3684 5.00271L10.2214 3.00812ZM10.6113 3C10.4651 3 10.3404 2.99935 10.2214 3.00812L10.3684 5.00271C10.3963 5.00065 10.4329 5 10.6113 5V3ZM13.3886 3H10.6113V5H13.3886V3ZM13.7792 3.00812C13.6601 2.99934 13.5347 3 13.3886 3V5C13.5671 5 13.6043 5.00066 13.6321 5.00271L13.7792 3.00812ZM16.3272 4.84437C15.8917 3.80078 14.9065 3.09123 13.7792 3.00812L13.6321 5.00271C14.0082 5.03043 14.3364 5.267 14.4814 5.61461L16.3272 4.84437ZM16.4584 5.21209C16.4117 5.07194 16.373 4.95417 16.3272 4.84438L14.4814 5.61461C14.4923 5.6407 14.5051 5.67674 14.5611 5.84455L16.4584 5.21209ZM16.5687 5.58223C16.5424 5.45862 16.495 5.32174 16.4584 5.21209L14.5611 5.84456C14.5853 5.91733 14.5993 5.95943 14.6091 5.9904C14.6187 6.02123 14.6166 6.01765 14.6128 5.99963L16.5687 5.58223ZM14.8355 7.98793C16.0117 7.85624 16.8153 6.73771 16.5687 5.58223L14.6128 5.99964L14.6129 6.00035L14.8355 7.98793ZM7 13C7 15.7614 9.23858 18 12 18V16C10.3431 16 9 14.6569 9 13H7ZM12 8C9.23858 8 7 10.2386 7 13H9C9 11.3431 10.3431 10 12 10V8ZM17 13C17 10.2386 14.7614 8 12 8V10C13.6569 10 15 11.3431 15 13H17ZM12 18C14.7614 18 17 15.7614 17 13H15C15 14.6569 13.6569 16 12 16V18Z" fill="var(--color-theme-main)"/>
</svg>
