<svg width="24" height="24" viewBox="0 0 24 24" fill="none" xmlns="http://www.w3.org/2000/svg">
<path fill-rule="evenodd" clip-rule="evenodd" d="M2.96609 6.79453C2.70635 7.03406 2.48939 7.31908 2.32698 7.63782C2.13416 8.01626 2.06286 8.40963 2.03057 8.805C1.99997 9.17965 1.99998 9.63449 2 10.1617V10.1617V10.2002V15.8002V15.8388V15.8388C1.99998 16.3659 1.99997 16.8205 2.03058 17.1949C2.06289 17.5902 2.13424 17.9831 2.32698 18.3614L3.20654 17.9132L2.32698 18.3614C2.61405 18.9248 3.07224 19.3851 3.63781 19.6732C4.016 19.8659 4.40906 19.9372 4.80397 19.9695C5.17815 20 5.6323 20 6.15839 20H6.19691H16.1716L14.1716 18H6.19691C5.62146 18 5.2498 17.9992 4.96686 17.9761C4.69554 17.9539 4.59501 17.9163 4.54579 17.8912C4.35871 17.7959 4.20542 17.6427 4.109 17.4534C4.08375 17.4039 4.04611 17.3032 4.02393 17.0319C4.00078 16.7488 4 16.3768 4 15.8002V10.2002C4 9.62366 4.00078 9.25127 4.02393 8.96781C4.04614 8.69596 4.08383 8.59518 4.109 8.5458C4.17557 8.41514 4.26957 8.30156 4.3838 8.21224L2.96609 6.79453ZM9.00457 12.833C9.00154 12.8883 9 12.944 9 13C9 14.6569 10.3431 16 12 16C12.056 16 12.1117 15.9985 12.167 15.9954L9.00457 12.833ZM14.9954 13.167L11.833 10.0046C11.8883 10.0015 11.944 10 12 10C13.6569 10 15 11.3432 15 13C15 13.0561 14.9985 13.1117 14.9954 13.167ZM19.6159 17.7875C19.7303 17.6979 19.8247 17.584 19.8912 17.4534C19.9164 17.4041 19.954 17.3037 19.9761 17.0327C19.9992 16.75 20 16.3786 20 15.8031V10.1969C20 9.62147 19.9992 9.24981 19.9761 8.96687C19.9539 8.69555 19.9163 8.59501 19.8912 8.5458L20.7401 8.11327L19.8912 8.5458C19.7959 8.35872 19.6427 8.20543 19.4534 8.109C19.4039 8.08376 19.3032 8.04611 19.0319 8.02393C18.7488 8.00079 18.3768 8.00001 17.8002 8.00001H15.5908H14.5112H14.5109H14.5108L14.4712 8.00001H14.4711L14.449 8.00001H14.4489H9.82843L7.4277 5.59928C7.42882 5.59356 7.42998 5.58785 7.4312 5.58215C7.45497 5.47078 7.49575 5.34897 7.5295 5.24818L7.5295 5.24818L7.53962 5.2179L7.54116 5.21328L7.54117 5.21328L7.54155 5.2122L7.55055 5.18519L7.55056 5.18516C7.59292 5.05797 7.62977 4.9473 7.67272 4.84438C8.10839 3.80038 9.09449 3.09121 10.2214 3.00813C10.3326 2.99993 10.4488 2.99997 10.5829 3.00001L10.6113 3.00001H13.3886L13.4171 3.00001C13.5511 2.99997 13.668 2.99993 13.7792 3.00813C14.9065 3.09124 15.8917 3.80079 16.3272 4.84438C16.3707 4.94868 16.4078 5.06017 16.4515 5.1912L16.4585 5.2121L16.4689 5.24332C16.5036 5.34706 16.5448 5.47011 16.5687 5.58224C16.5834 5.65084 16.5908 5.7208 16.5908 5.79094V6.00001H17.8002L17.8388 6.00001H17.8388C18.3659 5.99999 18.8205 5.99998 19.1949 6.03058C19.5902 6.0629 19.9831 6.13425 20.3614 6.32699C20.9248 6.61406 21.3851 7.07225 21.6732 7.63782C21.8659 8.01601 21.9372 8.40907 21.9695 8.80398C22 9.17816 22 9.63231 22 10.1584V10.1969V15.8031V15.8416C22 16.3677 22 16.8217 21.9695 17.1957C21.9372 17.5906 21.8659 17.9833 21.6732 18.3614C21.5109 18.6801 21.2936 18.9654 21.0336 19.2052L19.6159 17.7875ZM9.55078 6.00001H9.48941H9.48898C9.45345 6 9.4282 5.99991 9.40918 5.99972V5.93403L9.43699 5.85036L9.43737 5.84927L9.43738 5.84927L9.43892 5.84465C9.49536 5.67533 9.50771 5.64037 9.51845 5.61462C9.66334 5.26741 9.99195 5.03047 10.3684 5.00272C10.3963 5.00067 10.4329 5.00001 10.6113 5.00001H13.3886C13.5671 5.00001 13.6043 5.00067 13.6321 5.00272C14.0082 5.03044 14.3364 5.26701 14.4814 5.61462C14.4923 5.64071 14.5051 5.67675 14.5611 5.84456L14.5908 5.83467L14.5611 5.84457L14.5908 5.93388V5.99972C14.5716 5.99991 14.5463 6 14.5108 6.00001H14.5108H14.5104H14.4491H14.449H9.55078Z" fill="white"/>
<path d="M3 4L20 21" stroke="white" stroke-width="2" stroke-linecap="round" stroke-linejoin="round"/>
</svg>
