<svg width="24" height="24" viewBox="0 0 24 24" fill="none" xmlns="http://www.w3.org/2000/svg">
<path fill-rule="evenodd" clip-rule="evenodd" d="M8 9.82843V11C8 13.2091 9.79086 15 12 15C12.3583 15 12.7056 14.9529 13.0361 14.8645L10.5864 12.4149C10.586 12.4144 10.5856 12.414 10.5851 12.4136L8 9.82843ZM14 10.1716V6C14 4.89543 13.1046 4 12 4C10.8954 4 10 4.89543 10 6V6.17157L8.30169 4.47327C8.90166 3.02153 10.3315 2 12 2C14.2091 2 16 3.79086 16 6V11C16 11.3583 15.9529 11.7056 15.8645 12.0361L14 10.1716ZM13.8272 15.6556C13.2612 15.8779 12.6449 16 12 16C9.23858 16 7 13.7614 7 11C7 10.4477 6.55228 10 6 10C5.44772 10 5 10.4477 5 11C5 14.5265 7.60771 17.4439 11 17.9291V20H9C8.44772 20 8 20.4477 8 21C8 21.5523 8.44772 22 9 22H12H15C15.5523 22 16 21.5523 16 21C16 20.4477 15.5523 20 15 20H13V17.9291C13.833 17.81 14.6188 17.5441 15.3302 17.1586L13.8272 15.6556ZM18.1586 14.3302L16.6556 12.8272C16.8779 12.2612 17 11.6449 17 11C17 10.4477 17.4477 10 18 10C18.5523 10 19 10.4477 19 11C19 12.2055 18.6953 13.3399 18.1586 14.3302Z" fill="white"/>
<path d="M5 4L19 18" stroke="white" stroke-width="2" stroke-linecap="round" stroke-linejoin="round"/>
</svg>
