<svg width="24" height="24" viewBox="0 0 24 24" fill="none" xmlns="http://www.w3.org/2000/svg">
<path d="M15 6V11C15 12.6569 13.6569 14 12 14C10.3431 14 9 12.6569 9 11V6C9 4.34315 10.3431 3 12 3C13.6569 3 15 4.34315 15 6Z" fill="#F88DAD"/>
<path d="M9 21H12M15 21H12M12 21V17M12 17C8.68629 17 6 14.3137 6 11M12 17C15.3137 17 18 14.3137 18 11M12 14C10.3431 14 9 12.6569 9 11V6C9 4.34315 10.3431 3 12 3C13.6569 3 15 4.34315 15 6V11C15 12.6569 13.6569 14 12 14Z" stroke="#F88DAD" stroke-width="2" stroke-linecap="round" stroke-linejoin="round"/>
</svg>
