<svg width="24" height="24" viewBox="0 0 24 24" fill="none" xmlns="http://www.w3.org/2000/svg">
<path d="M5 6.13073L5 17.8701C5 18.8086 5 19.2775 5.20127 19.5551C5.37694 19.7975 5.6477 19.9565 5.9483 19.9946C6.29271 20.0382 6.71425 19.818 7.55818 19.3764L17.5052 13.6024C18.4399 13.1133 18.7468 12.7111 18.8999 12.3854C19.0334 12.1018 19.0334 11.8897 18.8999 11.6061C18.747 11.2809 18.4372 10.8893 17.5052 10.4016L7.55818 4.62411C6.71486 4.1828 6.29259 3.96184 5.9483 4.00541C5.6477 4.04345 5.37694 4.20256 5.20127 4.44489C5 4.72255 5 5.19229 5 6.13073Z" fill="#FEF3F7" stroke="#FEF3F7" stroke-width="2" stroke-linecap="round" stroke-linejoin="round"/>
</svg>
