<svg width="32" height="32" viewBox="0 0 32 32" fill="none" xmlns="http://www.w3.org/2000/svg">
<g id="play">
<path id="Vector" d="M6.66675 8.17399L6.66675 23.8265C6.66675 25.0778 6.66675 25.7029 6.93511 26.0732C7.16933 26.3963 7.53035 26.6084 7.93115 26.6591C8.39036 26.7172 8.95242 26.4237 10.0777 25.8349L23.3404 18.1362C24.5866 17.4841 24.9958 16.9477 25.2 16.5136C25.3779 16.1354 25.3779 15.8526 25.2 15.4744C24.9961 15.0409 24.583 14.5187 23.3404 13.8685L10.0777 6.16515C8.95322 5.57674 8.3902 5.28212 7.93115 5.34022C7.53035 5.39094 7.16933 5.60308 6.93511 5.9262C6.66675 6.29641 6.66675 6.92273 6.66675 8.17399Z" fill="var(--color-theme-light)" stroke="var(--color-theme-light)" stroke-width="2" stroke-linecap="round" stroke-linejoin="round"/>
</g>
</svg>
