<svg width="32" height="32" viewBox="0 0 32 32" fill="none" xmlns="http://www.w3.org/2000/svg">
<g id="stop">
<path id="Vector" d="M6.66675 10.9334V21.0668C6.66675 22.5602 6.66675 23.3059 6.9574 23.8764C7.21306 24.3781 7.62071 24.7871 8.12248 25.0428C8.69235 25.3332 9.43874 25.3332 10.9293 25.3332H21.0715C22.5621 25.3332 23.3074 25.3332 23.8773 25.0428C24.379 24.7871 24.7874 24.3781 25.0431 23.8764C25.3334 23.3065 25.3334 22.5612 25.3334 21.0706V10.9291C25.3334 9.4385 25.3334 8.69211 25.0431 8.12223C24.7874 7.62047 24.379 7.21282 23.8773 6.95715C23.3068 6.6665 22.5605 6.6665 21.067 6.6665H10.9337C9.4402 6.6665 8.69291 6.6665 8.12248 6.95715C7.62071 7.21282 7.21306 7.62047 6.9574 8.12223C6.66675 8.69266 6.66675 9.43996 6.66675 10.9334Z" fill="var(--color-theme-light)" stroke="var(--color-theme-light)" stroke-width="2" stroke-linecap="round" stroke-linejoin="round"/>
</g>
</svg>
