<svg width="24" height="24" viewBox="0 0 24 24" fill="none" xmlns="http://www.w3.org/2000/svg">
<path fill-rule="evenodd" clip-rule="evenodd" d="M3 12C3 16.9706 7.02944 21 12 21C16.9706 21 21 16.9706 21 12C21 7.02944 16.9706 3 12 3C7.02944 3 3 7.02944 3 12ZM16 13.8661V10.1328C16 9.38608 15.9995 9.01308 15.8542 8.72786C15.7263 8.47698 15.5231 8.27316 15.2722 8.14532C14.987 8 14.6129 8 13.8661 8H10.1328C9.38608 8 9.01308 8 8.72786 8.14532C8.47698 8.27316 8.27316 8.47698 8.14532 8.72786C8 9.01308 8 9.38608 8 10.1328V13.8661C8 14.6129 8 14.987 8.14532 15.2722C8.27316 15.5231 8.47698 15.7263 8.72786 15.8542C9.01308 15.9995 9.38608 16 10.1328 16H13.8661C14.6129 16 14.987 15.9995 15.2722 15.8542C15.5231 15.7263 15.7263 15.5231 15.8542 15.2722C15.9995 14.987 16 14.6129 16 13.8661Z" fill="#333333"/>
</svg>
