<svg width="24" height="24" viewBox="0 0 24 24" fill="none" xmlns="http://www.w3.org/2000/svg">
<path d="M8.8125 9.18725H10.1875L16 14.9997V16.4741C16 17.8635 16 18.5583 15.7394 18.8444C15.5138 19.0922 15.1792 19.2105 14.848 19.1596C14.4655 19.1008 14.0288 18.5604 13.1555 17.4797L11.4803 15.4066C11.3039 15.1883 11.2157 15.0791 11.1065 15.0006C11.0098 14.931 10.9015 14.8792 10.7866 14.8478C10.6569 14.8122 10.5165 14.8122 10.2358 14.8122H8.8125C8.0563 14.8122 7.6782 14.8122 7.37264 14.7113C6.77131 14.5127 6.2996 14.0409 6.10094 13.4396C6 13.134 6 12.7559 6 11.9997C6 11.2435 6 10.8654 6.10094 10.5599C6.2996 9.95855 6.77131 9.48684 7.37264 9.28819C7.6782 9.18725 8.0563 9.18725 8.8125 9.18725Z" fill="var(--color-theme-main)"/>
<path d="M16 6.97735V10L12.875 6.86693L13.5 6.0935C14.0885 5.36526 14.3827 5.00113 14.6188 4.90379C15.0905 4.70931 15.6329 4.90109 15.8776 5.3488C16 5.57291 16 6.04105 16 6.97735Z" fill="var(--color-theme-main)"/>
<path d="M6 4.99975L20 18.9997M8.8125 9.18725H10.1875L16 14.9997V16.4741C16 17.8635 16 18.5583 15.7394 18.8444C15.5138 19.0922 15.1792 19.2105 14.848 19.1596C14.4655 19.1008 14.0288 18.5604 13.1555 17.4797L11.4803 15.4066C11.3039 15.1883 11.2157 15.0791 11.1065 15.0006C11.0098 14.931 10.9015 14.8792 10.7866 14.8478C10.6569 14.8122 10.5165 14.8122 10.2358 14.8122H8.8125C8.0563 14.8122 7.6782 14.8122 7.37264 14.7113C6.77131 14.5127 6.2996 14.0409 6.10094 13.4396C6 13.134 6 12.7559 6 11.9997C6 11.2435 6 10.8654 6.10094 10.5599C6.2996 9.95855 6.77131 9.48684 7.37264 9.28819C7.6782 9.18725 8.0563 9.18725 8.8125 9.18725ZM16 6.97735V10L12.875 6.86693L13.5 6.0935C14.0885 5.36526 14.3827 5.00113 14.6188 4.90379C15.0905 4.70931 15.6329 4.90109 15.8776 5.3488C16 5.57291 16 6.04105 16 6.97735Z" stroke="var(--color-theme-main)" stroke-width="2" stroke-linecap="round" stroke-linejoin="round"/>
</svg>
