<svg width="128" height="128" viewBox="0 0 128 128" fill="none" xmlns="http://www.w3.org/2000/svg">
<path class="svg-fill" d="M107.5 42H85.5V64C85.5 67.0376 83.0376 69.5 80 69.5H41.5V86C41.5 89.0376 43.9624 91.5 47 91.5H91.1504C92.4342 91.5 93.681 91.9499 94.6685 92.7703L113 108V47.5C113 44.4624 110.538 42 107.5 42Z" fill="white"/>
<path class="svg-stroke" d="M85.5 42H107.5C110.538 42 113 44.4624 113 47.5V108L94.6685 92.7703C93.681 91.9499 92.4342 91.5 91.1504 91.5H47C43.9624 91.5 41.5 89.0376 41.5 86V69.5M85.5 42V25.5C85.5 22.4624 83.0376 20 80 20H19.5C16.4624 20 14 22.4624 14 25.5V86.0016L32.3315 70.7695C33.319 69.9491 34.5658 69.5 35.8496 69.5H41.5M85.5 42V64C85.5 67.0376 83.0376 69.5 80 69.5H41.5" stroke="white" stroke-width="7" stroke-linecap="round" stroke-linejoin="round"/>
</svg>
