<svg width="24" height="24" viewBox="0 0 24 24" fill="none" xmlns="http://www.w3.org/2000/svg">
<path d="M3 6.2002V17.8002C3 18.9203 3 19.4801 3.21799 19.9079C3.40973 20.2842 3.71547 20.5905 4.0918 20.7822C4.5192 21 5.07899 21 6.19691 21H17.8031C18.921 21 19.48 21 19.9074 20.7822C20.2837 20.5905 20.5905 20.2842 20.7822 19.9079C21 19.4805 21 18.9215 21 17.8036V6.19691C21 5.07899 21 4.5192 20.7822 4.0918C20.5905 3.71547 20.2837 3.40973 19.9074 3.21799C19.4796 3 18.9203 3 17.8002 3H6.2002C5.08009 3 4.51962 3 4.0918 3.21799C3.71547 3.40973 3.40973 3.71547 3.21799 4.0918C3 4.51962 3 5.08009 3 6.2002Z" fill="#F88DAD" stroke="#F88DAD" stroke-width="2" stroke-linecap="round" stroke-linejoin="round"/>
<mask id="mask0_38_332" style="mask-type:alpha" maskUnits="userSpaceOnUse" x="4" y="4" width="16" height="16">
<rect x="4" y="4" width="16" height="16" rx="1" fill="url(#paint0_diamond_38_332)" fill-opacity="0.15"/>
</mask>
<g mask="url(#mask0_38_332)">
<rect x="4" y="4" width="16" height="16" rx="1" fill="#EF4482"/>
</g>
<path d="M16.5 9L10.5002 15L7.5 12" stroke="white" stroke-width="2" stroke-linecap="round" stroke-linejoin="round"/>
<defs>
<radialGradient id="paint0_diamond_38_332" cx="0" cy="0" r="1" gradientUnits="userSpaceOnUse" gradientTransform="translate(12 12) rotate(45) scale(13.435 13.435)">
<stop offset="0.375" stop-opacity="0"/>
<stop offset="1"/>
</radialGradient>
</defs>
</svg>
