<svg width="36" height="36" viewBox="0 0 36 36" fill="none" xmlns="http://www.w3.org/2000/svg">
<path d="M18 21.5556C15.0545 21.5556 12.6667 19.1677 12.6667 16.2222C12.6667 13.2767 15.0545 10.8889 18 10.8889C20.9455 10.8889 23.3333 13.2767 23.3333 16.2222C23.3333 19.1677 20.9455 21.5556 18 21.5556Z" fill="white"/>
<path fill-rule="evenodd" clip-rule="evenodd" d="M28.0575 30.4444C25.1111 26 21.6847 24.2222 18 24.2222C14.3153 24.2222 10.8889 26 7.94252 30.4444C4.31763 27.5112 2 23.0263 2 18C2 9.16344 9.16344 2 18 2C26.8366 2 34 9.16344 34 18C34 23.0263 31.6824 27.5112 28.0575 30.4444C28.0575 30.4444 28.0575 30.4445 28.0575 30.4444ZM18 21.5556C15.0545 21.5556 12.6667 19.1677 12.6667 16.2222C12.6667 13.2767 15.0545 10.8889 18 10.8889C20.9455 10.8889 23.3333 13.2767 23.3333 16.2222C23.3333 19.1677 20.9455 21.5556 18 21.5556Z" fill="var(--color-theme-main)"/>
<path d="M7.94252 30.4444C10.6905 32.6681 14.1897 34 18 34C21.8103 34 25.3095 32.6681 28.0575 30.4444C25.1111 26 21.6847 24.2222 18 24.2222C14.3153 24.2222 10.8889 26 7.94252 30.4444Z" fill="white"/>
<path d="M18 34C9.16344 34 2 26.8366 2 18M18 34C26.8366 34 34 26.8366 34 18M18 34C21.8103 34 25.3095 32.6681 28.0575 30.4444M18 34C14.1897 34 10.6905 32.6681 7.94252 30.4444M2 18C2 9.16344 9.16344 2 18 2C26.8366 2 34 9.16344 34 18M2 18C2 23.0263 4.31763 27.5112 7.94252 30.4444M34 18C34 23.0263 31.6824 27.5112 28.0575 30.4444M28.0575 30.4444C25.1111 26 21.6847 24.2222 18 24.2222C14.3153 24.2222 10.8889 26 7.94252 30.4444M28.0575 30.4444C28.0575 30.4445 28.0575 30.4444 28.0575 30.4444ZM18 21.5556C15.0545 21.5556 12.6667 19.1677 12.6667 16.2222C12.6667 13.2767 15.0545 10.8889 18 10.8889C20.9455 10.8889 23.3333 13.2767 23.3333 16.2222C23.3333 19.1677 20.9455 21.5556 18 21.5556Z" stroke="white" stroke-width="1.5" stroke-linecap="round" stroke-linejoin="round"/>
</svg>
