<svg width="24" height="24" viewBox="0 0 24 24" fill="none" xmlns="http://www.w3.org/2000/svg">
<path fill-rule="evenodd" clip-rule="evenodd" d="M12.0002 2.41675C9.62624 2.41798 7.33011 3.2588 5.52239 4.78885C3.71467 6.3189 2.51325 8.43842 2.13295 10.7684C1.75265 13.0984 2.21827 15.4869 3.44656 17.5069C4.67484 19.5269 6.5857 21.0466 8.83744 21.7942C9.33421 21.8864 9.52133 21.5785 9.52133 21.3167C9.52133 21.055 9.51139 20.2959 9.50808 19.4661C6.72616 20.0671 6.13832 18.2922 6.13832 18.2922C5.6846 17.1396 5.02886 16.8367 5.02886 16.8367C4.12143 16.2209 5.09676 16.2324 5.09676 16.2324C6.10189 16.3032 6.63013 17.2582 6.63013 17.2582C7.521 18.7779 8.96991 18.3383 9.53954 18.0814C9.62896 17.4376 9.88894 16.9997 10.1754 16.751C7.95319 16.5008 5.61836 15.6479 5.61836 11.8379C5.60459 10.8498 5.97335 9.89429 6.64834 9.16898C6.54567 8.91872 6.2029 7.90778 6.74603 6.53461C6.74603 6.53461 7.58558 6.26788 9.4965 7.55378C11.1356 7.1081 12.8649 7.1081 14.5039 7.55378C16.4132 6.26788 17.2511 6.53461 17.2511 6.53461C17.7959 7.90448 17.4531 8.91542 17.3504 9.16898C18.0276 9.89441 18.3971 10.8516 18.3821 11.8412C18.3821 15.6594 16.0423 16.5008 13.8167 16.7461C14.1744 17.0556 14.494 17.6599 14.494 18.5885C14.494 19.9189 14.4824 20.9891 14.4824 21.3167C14.4824 21.5818 14.6629 21.8914 15.1696 21.7942C17.4216 21.0465 19.3327 19.5265 20.5609 17.5062C21.7892 15.4859 22.2546 13.097 21.8738 10.7668C21.4931 8.43658 20.2911 6.31704 18.4828 4.78725C16.6745 3.25746 14.3778 2.4172 12.0035 2.41675H12.0002Z" fill="white"/>
<path d="M5.78703 16.6933C5.7655 16.7427 5.68602 16.7575 5.62144 16.7229C5.55686 16.6883 5.50884 16.6241 5.53202 16.5731C5.55521 16.522 5.63303 16.5089 5.69761 16.5434C5.76219 16.578 5.81187 16.6439 5.78703 16.6933Z" fill="white"/>
<path d="M6.19274 17.1428C6.15845 17.16 6.11921 17.1648 6.08176 17.1563C6.0443 17.1479 6.01095 17.1268 5.98741 17.0967C5.92283 17.0275 5.90957 16.932 5.95925 16.8892C6.00893 16.8464 6.09835 16.8662 6.16293 16.9353C6.22751 17.0045 6.24242 17.1 6.19274 17.1428Z" fill="white"/>
<path d="M6.58687 17.7141C6.52561 17.7569 6.42128 17.7141 6.36332 17.6285C6.34729 17.6131 6.33455 17.5947 6.32584 17.5743C6.31714 17.5539 6.31264 17.532 6.31264 17.5099C6.31264 17.4878 6.31714 17.4659 6.32584 17.4455C6.33455 17.4251 6.34729 17.4067 6.36332 17.3914C6.42459 17.3502 6.52892 17.3914 6.58687 17.4753C6.64483 17.5593 6.64649 17.6713 6.58687 17.7141Z" fill="white"/>
<path d="M7.12171 18.2674C7.06707 18.3283 6.95612 18.3118 6.86505 18.2295C6.77397 18.1472 6.75244 18.0352 6.80709 17.9759C6.86173 17.9167 6.97268 17.9331 7.06706 18.0138C7.16145 18.0945 7.17967 18.2081 7.12171 18.2674Z" fill="white"/>
<path d="M7.87181 18.5901C7.84698 18.6675 7.73437 18.702 7.62177 18.6691C7.50917 18.6362 7.43465 18.544 7.45618 18.4649C7.47771 18.3859 7.59197 18.3497 7.70622 18.3859C7.82048 18.4221 7.89334 18.5094 7.87181 18.5901Z" fill="white"/>
<path d="M8.68986 18.6461C8.68986 18.7268 8.59714 18.796 8.47791 18.7976C8.35868 18.7993 8.26099 18.7334 8.26099 18.6527C8.26099 18.5721 8.35371 18.5029 8.47294 18.5013C8.59216 18.4996 8.68986 18.5638 8.68986 18.6461Z" fill="white"/>
<path d="M9.45158 18.5192C9.46648 18.5999 9.38368 18.6838 9.26446 18.7036C9.14523 18.7233 9.04091 18.6756 9.02601 18.5966C9.01111 18.5175 9.09721 18.4319 9.21313 18.4105C9.32904 18.3891 9.43667 18.4385 9.45158 18.5192Z" fill="white"/>
</svg>
