<svg width="141" height="29" viewBox="0 0 141 29" fill="none" xmlns="http://www.w3.org/2000/svg">
<g clip-path="url(#clip0_53_427)" filter="url(#filter0_d_53_427)">
<path d="M22 8H18V12C18 12.5523 17.5523 13 17 13H10V16C10 16.5523 10.4477 17 11 17H19.0273C19.2608 17 19.4875 17.0818 19.667 17.231L23 20V9C23 8.44772 22.5523 8 22 8Z" fill="#F88DAD"/>
<path d="M18 8H22C22.5523 8 23 8.44772 23 9V20L19.667 17.231C19.4875 17.0818 19.2608 17 19.0273 17H11C10.4477 17 10 16.5523 10 16V13M18 8V5C18 4.44772 17.5523 4 17 4H6C5.44772 4 5 4.44772 5 5V16.0003L8.33301 13.2308C8.51255 13.0817 8.73924 13 8.97266 13H10M18 8V12C18 12.5523 17.5523 13 17 13H10" stroke="#F88DAD" stroke-width="2" stroke-linecap="round" stroke-linejoin="round"/>
<path d="M39.8555 4.83594C39.8555 5.09375 39.8086 5.33594 39.7148 5.5625C39.6211 5.78906 39.4883 5.98828 39.3164 6.16016C39.1523 6.32422 38.957 6.45703 38.7305 6.55859C38.5039 6.65234 38.2578 6.69922 37.9922 6.69922C37.7266 6.69922 37.4766 6.65234 37.2422 6.55859C37.0156 6.45703 36.8164 6.32422 36.6445 6.16016C36.4805 5.98828 36.3516 5.78906 36.2578 5.5625C36.1641 5.33594 36.1172 5.09375 36.1172 4.83594C36.1172 4.57812 36.1641 4.33594 36.2578 4.10938C36.3516 3.88281 36.4805 3.68359 36.6445 3.51172C36.8164 3.33984 37.0156 3.20703 37.2422 3.11328C37.4766 3.01172 37.7266 2.96094 37.9922 2.96094C38.2578 2.96094 38.5039 3.01172 38.7305 3.11328C38.957 3.20703 39.1523 3.33984 39.3164 3.51172C39.4883 3.68359 39.6211 3.88281 39.7148 4.10938C39.8086 4.33594 39.8555 4.57812 39.8555 4.83594ZM36.6914 10.3203H33.3281V8.09375H39.6211V17.7734H43.0547V20H32.918V17.7734H36.6914V10.3203ZM55.8633 19.8828C55.3477 20 54.8281 20.0938 54.3047 20.1641C53.7812 20.2344 53.2852 20.2695 52.8164 20.2695C52.0352 20.2695 51.3594 20.1875 50.7891 20.0234C50.2266 19.8594 49.7578 19.6094 49.3828 19.2734C49.0156 18.9375 48.7422 18.5117 48.5625 17.9961C48.3906 17.4727 48.3047 16.8516 48.3047 16.1328V10.3203H45.1055V8.09375H48.3047V5.04688L51.2344 4.28516V8.09375H55.8633V10.3203H51.2344V15.9219C51.2344 16.6016 51.3906 17.1172 51.7031 17.4688C52.0156 17.8125 52.5391 17.9844 53.2734 17.9844C53.7422 17.9844 54.1992 17.9453 54.6445 17.8672C55.0898 17.7891 55.4961 17.6992 55.8633 17.5977V19.8828ZM69.6094 13.1328C69.6094 13.3281 69.6016 13.582 69.5859 13.8945C69.5781 14.207 69.5625 14.5 69.5391 14.7734H61.7109C61.7109 15.2969 61.7891 15.7578 61.9453 16.1562C62.1094 16.5547 62.3359 16.8906 62.625 17.1641C62.9219 17.4297 63.2734 17.6328 63.6797 17.7734C64.0938 17.9141 64.5508 17.9844 65.0508 17.9844C65.6289 17.9844 66.2461 17.9414 66.9023 17.8555C67.5664 17.7617 68.2539 17.6133 68.9648 17.4102V19.6836C68.6602 19.7695 68.3281 19.8477 67.9688 19.918C67.6094 19.9883 67.2422 20.0508 66.8672 20.1055C66.4922 20.1602 66.1133 20.1992 65.7305 20.2227C65.3477 20.2539 64.9766 20.2695 64.6172 20.2695C63.7109 20.2695 62.8984 20.1406 62.1797 19.8828C61.4609 19.625 60.8516 19.2461 60.3516 18.7461C59.8516 18.2383 59.4688 17.6133 59.2031 16.8711C58.9375 16.1289 58.8047 15.2695 58.8047 14.293C58.8047 13.3242 58.9375 12.4453 59.2031 11.6562C59.4688 10.8594 59.8438 10.1797 60.3281 9.61719C60.8125 9.04688 61.3984 8.60938 62.0859 8.30469C62.7812 7.99219 63.5547 7.83594 64.4062 7.83594C65.25 7.83594 65.9961 7.96875 66.6445 8.23438C67.293 8.49219 67.8359 8.85547 68.2734 9.32422C68.7109 9.79297 69.043 10.3516 69.2695 11C69.4961 11.6484 69.6094 12.3594 69.6094 13.1328ZM66.7031 12.7227C66.7109 12.2539 66.6523 11.8477 66.5273 11.5039C66.4023 11.1523 66.2305 10.8633 66.0117 10.6367C65.8008 10.4102 65.5508 10.2422 65.2617 10.1328C64.9805 10.0234 64.6758 9.96875 64.3477 9.96875C63.6289 9.96875 63.0391 10.2109 62.5781 10.6953C62.1172 11.1719 61.8438 11.8477 61.7578 12.7227H66.7031ZM80.0977 12.7227C80.1133 12.2773 80.0898 11.8984 80.0273 11.5859C79.9727 11.2734 79.8789 11.0156 79.7461 10.8125C79.6211 10.6094 79.4648 10.4609 79.2773 10.3672C79.0898 10.2734 78.875 10.2266 78.6328 10.2266C78.2109 10.2266 77.7734 10.4023 77.3203 10.7539C76.875 11.0977 76.3828 11.668 75.8438 12.4648V20H72.9141V8.09375H75.5039L75.6094 9.82812C75.8047 9.52344 76.0234 9.25 76.2656 9.00781C76.5156 8.76562 76.7891 8.55859 77.0859 8.38672C77.3906 8.20703 77.7266 8.07031 78.0938 7.97656C78.4609 7.88281 78.8633 7.83594 79.3008 7.83594C79.9023 7.83594 80.4336 7.94141 80.8945 8.15234C81.3633 8.35547 81.7539 8.66016 82.0664 9.06641C82.3867 9.47266 82.6211 9.98438 82.7695 10.6016C82.9258 11.2109 82.9922 11.918 82.9688 12.7227H80.0977ZM92.2852 20H88.9922L84.2695 8.09375H87.457L89.9297 14.8438L90.668 17.0234L91.3945 14.9375L93.8906 8.09375H96.9609L92.2852 20ZM105.832 4.83594C105.832 5.09375 105.785 5.33594 105.691 5.5625C105.598 5.78906 105.465 5.98828 105.293 6.16016C105.129 6.32422 104.934 6.45703 104.707 6.55859C104.48 6.65234 104.234 6.69922 103.969 6.69922C103.703 6.69922 103.453 6.65234 103.219 6.55859C102.992 6.45703 102.793 6.32422 102.621 6.16016C102.457 5.98828 102.328 5.78906 102.234 5.5625C102.141 5.33594 102.094 5.09375 102.094 4.83594C102.094 4.57812 102.141 4.33594 102.234 4.10938C102.328 3.88281 102.457 3.68359 102.621 3.51172C102.793 3.33984 102.992 3.20703 103.219 3.11328C103.453 3.01172 103.703 2.96094 103.969 2.96094C104.234 2.96094 104.48 3.01172 104.707 3.11328C104.934 3.20703 105.129 3.33984 105.293 3.51172C105.465 3.68359 105.598 3.88281 105.691 4.10938C105.785 4.33594 105.832 4.57812 105.832 4.83594ZM102.668 10.3203H99.3047V8.09375H105.598V17.7734H109.031V20H98.8945V17.7734H102.668V10.3203ZM122.391 13.1328C122.391 13.3281 122.383 13.582 122.367 13.8945C122.359 14.207 122.344 14.5 122.32 14.7734H114.492C114.492 15.2969 114.57 15.7578 114.727 16.1562C114.891 16.5547 115.117 16.8906 115.406 17.1641C115.703 17.4297 116.055 17.6328 116.461 17.7734C116.875 17.9141 117.332 17.9844 117.832 17.9844C118.41 17.9844 119.027 17.9414 119.684 17.8555C120.348 17.7617 121.035 17.6133 121.746 17.4102V19.6836C121.441 19.7695 121.109 19.8477 120.75 19.918C120.391 19.9883 120.023 20.0508 119.648 20.1055C119.273 20.1602 118.895 20.1992 118.512 20.2227C118.129 20.2539 117.758 20.2695 117.398 20.2695C116.492 20.2695 115.68 20.1406 114.961 19.8828C114.242 19.625 113.633 19.2461 113.133 18.7461C112.633 18.2383 112.25 17.6133 111.984 16.8711C111.719 16.1289 111.586 15.2695 111.586 14.293C111.586 13.3242 111.719 12.4453 111.984 11.6562C112.25 10.8594 112.625 10.1797 113.109 9.61719C113.594 9.04688 114.18 8.60938 114.867 8.30469C115.562 7.99219 116.336 7.83594 117.188 7.83594C118.031 7.83594 118.777 7.96875 119.426 8.23438C120.074 8.49219 120.617 8.85547 121.055 9.32422C121.492 9.79297 121.824 10.3516 122.051 11C122.277 11.6484 122.391 12.3594 122.391 13.1328ZM119.484 12.7227C119.492 12.2539 119.434 11.8477 119.309 11.5039C119.184 11.1523 119.012 10.8633 118.793 10.6367C118.582 10.4102 118.332 10.2422 118.043 10.1328C117.762 10.0234 117.457 9.96875 117.129 9.96875C116.41 9.96875 115.82 10.2109 115.359 10.6953C114.898 11.1719 114.625 11.8477 114.539 12.7227H119.484ZM134.988 20H131.812L130.547 16.2266L130.16 14.9141L129.773 16.2617L128.555 20H125.367L123.68 8.09375H126.398L127.254 14.8203L127.453 16.6602L127.934 15.0078L129.129 11.3867H131.309L132.586 14.9844L133.137 16.6836L133.359 14.7969L134.074 8.09375H136.664L134.988 20Z" fill="#FEF3F7"/>
</g>
<defs>
<filter id="filter0_d_53_427" x="-3" y="0" width="147" height="32" filterUnits="userSpaceOnUse" color-interpolation-filters="sRGB">
<feFlood flood-opacity="0" result="BackgroundImageFix"/>
<feColorMatrix in="SourceAlpha" type="matrix" values="0 0 0 0 0 0 0 0 0 0 0 0 0 0 0 0 0 0 127 0" result="hardAlpha"/>
<feOffset dy="4"/>
<feGaussianBlur stdDeviation="2"/>
<feComposite in2="hardAlpha" operator="out"/>
<feColorMatrix type="matrix" values="0 0 0 0 0 0 0 0 0 0 0 0 0 0 0 0 0 0 0.25 0"/>
<feBlend mode="normal" in2="BackgroundImageFix" result="effect1_dropShadow_53_427"/>
<feBlend mode="normal" in="SourceGraphic" in2="effect1_dropShadow_53_427" result="shape"/>
</filter>
<clipPath id="clip0_53_427">
<rect width="139" height="24" fill="white" transform="translate(1)"/>
</clipPath>
</defs>
</svg>
