<svg width="100%" height="100%" viewBox="0 0 139 24" fill="none" xmlns="http://www.w3.org/2000/svg">
<g clip-path="url(#clip0_53_414)">
<path d="M21 8H17V12C17 12.5523 16.5523 13 16 13H9V16C9 16.5523 9.44771 17 10 17H18.0273C18.2608 17 18.4875 17.0818 18.667 17.231L22 20V9C22 8.44772 21.5523 8 21 8Z" fill="var(--color-theme-main)"/>
<path d="M17 8H21C21.5523 8 22 8.44772 22 9V20L18.667 17.231C18.4875 17.0818 18.2608 17 18.0273 17H10C9.44771 17 9 16.5523 9 16V13M17 8V5C17 4.44772 16.5523 4 16 4H5C4.44772 4 4 4.44772 4 5V16.0003L7.33301 13.2308C7.51255 13.0817 7.73924 13 7.97266 13H9M17 8V12C17 12.5523 16.5523 13 16 13H9" stroke="var(--color-theme-main)" stroke-width="2" stroke-linecap="round" stroke-linejoin="round"/>
<path d="M38.8555 4.83594C38.8555 5.09375 38.8086 5.33594 38.7148 5.5625C38.6211 5.78906 38.4883 5.98828 38.3164 6.16016C38.1523 6.32422 37.957 6.45703 37.7305 6.55859C37.5039 6.65234 37.2578 6.69922 36.9922 6.69922C36.7266 6.69922 36.4766 6.65234 36.2422 6.55859C36.0156 6.45703 35.8164 6.32422 35.6445 6.16016C35.4805 5.98828 35.3516 5.78906 35.2578 5.5625C35.1641 5.33594 35.1172 5.09375 35.1172 4.83594C35.1172 4.57812 35.1641 4.33594 35.2578 4.10938C35.3516 3.88281 35.4805 3.68359 35.6445 3.51172C35.8164 3.33984 36.0156 3.20703 36.2422 3.11328C36.4766 3.01172 36.7266 2.96094 36.9922 2.96094C37.2578 2.96094 37.5039 3.01172 37.7305 3.11328C37.957 3.20703 38.1523 3.33984 38.3164 3.51172C38.4883 3.68359 38.6211 3.88281 38.7148 4.10938C38.8086 4.33594 38.8555 4.57812 38.8555 4.83594ZM35.6914 10.3203H32.3281V8.09375H38.6211V17.7734H42.0547V20H31.918V17.7734H35.6914V10.3203ZM54.8633 19.8828C54.3477 20 53.8281 20.0938 53.3047 20.1641C52.7812 20.2344 52.2852 20.2695 51.8164 20.2695C51.0352 20.2695 50.3594 20.1875 49.7891 20.0234C49.2266 19.8594 48.7578 19.6094 48.3828 19.2734C48.0156 18.9375 47.7422 18.5117 47.5625 17.9961C47.3906 17.4727 47.3047 16.8516 47.3047 16.1328V10.3203H44.1055V8.09375H47.3047V5.04688L50.2344 4.28516V8.09375H54.8633V10.3203H50.2344V15.9219C50.2344 16.6016 50.3906 17.1172 50.7031 17.4688C51.0156 17.8125 51.5391 17.9844 52.2734 17.9844C52.7422 17.9844 53.1992 17.9453 53.6445 17.8672C54.0898 17.7891 54.4961 17.6992 54.8633 17.5977V19.8828ZM68.6094 13.1328C68.6094 13.3281 68.6016 13.582 68.5859 13.8945C68.5781 14.207 68.5625 14.5 68.5391 14.7734H60.7109C60.7109 15.2969 60.7891 15.7578 60.9453 16.1562C61.1094 16.5547 61.3359 16.8906 61.625 17.1641C61.9219 17.4297 62.2734 17.6328 62.6797 17.7734C63.0938 17.9141 63.5508 17.9844 64.0508 17.9844C64.6289 17.9844 65.2461 17.9414 65.9023 17.8555C66.5664 17.7617 67.2539 17.6133 67.9648 17.4102V19.6836C67.6602 19.7695 67.3281 19.8477 66.9688 19.918C66.6094 19.9883 66.2422 20.0508 65.8672 20.1055C65.4922 20.1602 65.1133 20.1992 64.7305 20.2227C64.3477 20.2539 63.9766 20.2695 63.6172 20.2695C62.7109 20.2695 61.8984 20.1406 61.1797 19.8828C60.4609 19.625 59.8516 19.2461 59.3516 18.7461C58.8516 18.2383 58.4688 17.6133 58.2031 16.8711C57.9375 16.1289 57.8047 15.2695 57.8047 14.293C57.8047 13.3242 57.9375 12.4453 58.2031 11.6562C58.4688 10.8594 58.8438 10.1797 59.3281 9.61719C59.8125 9.04688 60.3984 8.60938 61.0859 8.30469C61.7812 7.99219 62.5547 7.83594 63.4062 7.83594C64.25 7.83594 64.9961 7.96875 65.6445 8.23438C66.293 8.49219 66.8359 8.85547 67.2734 9.32422C67.7109 9.79297 68.043 10.3516 68.2695 11C68.4961 11.6484 68.6094 12.3594 68.6094 13.1328ZM65.7031 12.7227C65.7109 12.2539 65.6523 11.8477 65.5273 11.5039C65.4023 11.1523 65.2305 10.8633 65.0117 10.6367C64.8008 10.4102 64.5508 10.2422 64.2617 10.1328C63.9805 10.0234 63.6758 9.96875 63.3477 9.96875C62.6289 9.96875 62.0391 10.2109 61.5781 10.6953C61.1172 11.1719 60.8438 11.8477 60.7578 12.7227H65.7031ZM79.0977 12.7227C79.1133 12.2773 79.0898 11.8984 79.0273 11.5859C78.9727 11.2734 78.8789 11.0156 78.7461 10.8125C78.6211 10.6094 78.4648 10.4609 78.2773 10.3672C78.0898 10.2734 77.875 10.2266 77.6328 10.2266C77.2109 10.2266 76.7734 10.4023 76.3203 10.7539C75.875 11.0977 75.3828 11.668 74.8438 12.4648V20H71.9141V8.09375H74.5039L74.6094 9.82812C74.8047 9.52344 75.0234 9.25 75.2656 9.00781C75.5156 8.76562 75.7891 8.55859 76.0859 8.38672C76.3906 8.20703 76.7266 8.07031 77.0938 7.97656C77.4609 7.88281 77.8633 7.83594 78.3008 7.83594C78.9023 7.83594 79.4336 7.94141 79.8945 8.15234C80.3633 8.35547 80.7539 8.66016 81.0664 9.06641C81.3867 9.47266 81.6211 9.98438 81.7695 10.6016C81.9258 11.2109 81.9922 11.918 81.9688 12.7227H79.0977ZM91.2852 20H87.9922L83.2695 8.09375H86.457L88.9297 14.8438L89.668 17.0234L90.3945 14.9375L92.8906 8.09375H95.9609L91.2852 20ZM104.832 4.83594C104.832 5.09375 104.785 5.33594 104.691 5.5625C104.598 5.78906 104.465 5.98828 104.293 6.16016C104.129 6.32422 103.934 6.45703 103.707 6.55859C103.48 6.65234 103.234 6.69922 102.969 6.69922C102.703 6.69922 102.453 6.65234 102.219 6.55859C101.992 6.45703 101.793 6.32422 101.621 6.16016C101.457 5.98828 101.328 5.78906 101.234 5.5625C101.141 5.33594 101.094 5.09375 101.094 4.83594C101.094 4.57812 101.141 4.33594 101.234 4.10938C101.328 3.88281 101.457 3.68359 101.621 3.51172C101.793 3.33984 101.992 3.20703 102.219 3.11328C102.453 3.01172 102.703 2.96094 102.969 2.96094C103.234 2.96094 103.48 3.01172 103.707 3.11328C103.934 3.20703 104.129 3.33984 104.293 3.51172C104.465 3.68359 104.598 3.88281 104.691 4.10938C104.785 4.33594 104.832 4.57812 104.832 4.83594ZM101.668 10.3203H98.3047V8.09375H104.598V17.7734H108.031V20H97.8945V17.7734H101.668V10.3203ZM121.391 13.1328C121.391 13.3281 121.383 13.582 121.367 13.8945C121.359 14.207 121.344 14.5 121.32 14.7734H113.492C113.492 15.2969 113.57 15.7578 113.727 16.1562C113.891 16.5547 114.117 16.8906 114.406 17.1641C114.703 17.4297 115.055 17.6328 115.461 17.7734C115.875 17.9141 116.332 17.9844 116.832 17.9844C117.41 17.9844 118.027 17.9414 118.684 17.8555C119.348 17.7617 120.035 17.6133 120.746 17.4102V19.6836C120.441 19.7695 120.109 19.8477 119.75 19.918C119.391 19.9883 119.023 20.0508 118.648 20.1055C118.273 20.1602 117.895 20.1992 117.512 20.2227C117.129 20.2539 116.758 20.2695 116.398 20.2695C115.492 20.2695 114.68 20.1406 113.961 19.8828C113.242 19.625 112.633 19.2461 112.133 18.7461C111.633 18.2383 111.25 17.6133 110.984 16.8711C110.719 16.1289 110.586 15.2695 110.586 14.293C110.586 13.3242 110.719 12.4453 110.984 11.6562C111.25 10.8594 111.625 10.1797 112.109 9.61719C112.594 9.04688 113.18 8.60938 113.867 8.30469C114.562 7.99219 115.336 7.83594 116.188 7.83594C117.031 7.83594 117.777 7.96875 118.426 8.23438C119.074 8.49219 119.617 8.85547 120.055 9.32422C120.492 9.79297 120.824 10.3516 121.051 11C121.277 11.6484 121.391 12.3594 121.391 13.1328ZM118.484 12.7227C118.492 12.2539 118.434 11.8477 118.309 11.5039C118.184 11.1523 118.012 10.8633 117.793 10.6367C117.582 10.4102 117.332 10.2422 117.043 10.1328C116.762 10.0234 116.457 9.96875 116.129 9.96875C115.41 9.96875 114.82 10.2109 114.359 10.6953C113.898 11.1719 113.625 11.8477 113.539 12.7227H118.484ZM133.988 20H130.812L129.547 16.2266L129.16 14.9141L128.773 16.2617L127.555 20H124.367L122.68 8.09375H125.398L126.254 14.8203L126.453 16.6602L126.934 15.0078L128.129 11.3867H130.309L131.586 14.9844L132.137 16.6836L132.359 14.7969L133.074 8.09375H135.664L133.988 20Z" fill="var(--color-theme-light)"/>
</g>
<defs>
<clipPath id="clip0_53_414">
<rect width="139" height="24" fill="white"/>
</clipPath>
</defs>
</svg>
