<svg width="36" height="36" viewBox="0 0 36 36" fill="current" xmlns="http://www.w3.org/2000/svg">
<g id="star">
<path id="Vector" d="M3.50244 15.5054C3.03257 15.0709 3.2878 14.2853 3.92335 14.21L12.9287 13.1418C13.1877 13.1111 13.4127 12.9485 13.522 12.7116L17.3203 4.47694C17.5884 3.89578 18.4146 3.89567 18.6826 4.47683L22.481 12.7114C22.5902 12.9483 22.8137 13.1114 23.0728 13.1421L32.0786 14.21C32.7142 14.2853 32.9687 15.0711 32.4988 15.5056L25.8416 21.6631C25.6501 21.8402 25.5649 22.1038 25.6157 22.3596L27.3825 31.2542C27.5072 31.8819 26.8392 32.3683 26.2807 32.0557L18.3677 27.6252C18.1401 27.4978 17.8636 27.4983 17.636 27.6258L9.72216 32.0545C9.1637 32.3671 8.49441 31.8819 8.61914 31.2541L10.3862 22.3602C10.437 22.1044 10.352 21.8401 10.1605 21.6631L3.50244 15.5054Z" stroke="var(--color-theme-main)" stroke-width="3" stroke-linecap="round" stroke-linejoin="round"/>
</g>
</svg>
